<svg width="320" height="113" fill="none" xmlns="http://www.w3.org/2000/svg"><path d="M1.784 113c-.302 0-.583-.074-.843-.221a1.826 1.826 0 01-.622-.612 1.717 1.717 0 01-.221-.859v-.547h1.401v.508c0 .087.03.165.09.234.07.061.148.091.234.091h5.89c.087 0 .16-.03.22-.091a.345.345 0 00.091-.234v-1.927a.318.318 0 00-.09-.234.299.299 0 00-.22-.091h-5.93c-.302 0-.583-.074-.843-.221a1.835 1.835 0 01-.622-.612 1.717 1.717 0 01-.221-.859v-2.005c0-.312.074-.594.22-.846a1.7 1.7 0 01.623-.612c.26-.156.54-.234.844-.234h5.967c.303 0 .584.078.843.234.26.148.463.352.61.612.156.252.234.534.234.846v.547H8.024v-.508c0-.087-.03-.16-.09-.221a.283.283 0 00-.22-.104h-5.89a.324.324 0 00-.234.104.301.301 0 00-.09.221v1.927c0 .095.03.173.09.234.07.061.147.091.233.091h5.93c.302 0 .583.078.842.234.26.148.463.352.61.612.156.252.234.534.234.846v2.005c0 .312-.078.599-.234.859-.147.252-.35.456-.61.612-.26.147-.54.221-.843.221H1.785zm11.471 0c-.31 0-.596-.074-.856-.221a1.865 1.865 0 01-.61-.612 1.716 1.716 0 01-.22-.859v-7.68h1.401v7.641c0 .087.03.165.09.234.07.061.148.091.234.091h5.89c.086 0 .16-.03.22-.091a.346.346 0 00.091-.234v-7.641h1.414v7.68a1.715 1.715 0 01-.843 1.471c-.26.147-.54.221-.843.221h-5.968zm9.835 0v-9.359h7.642c.31 0 .596.078.856.234a1.7 1.7 0 01.61.625c.155.252.233.53.233.833v2.63c0 .312-.078.598-.233.859a1.72 1.72 0 01-.61.611 1.7 1.7 0 01-.856.222l-6.24.013V113H23.09zm1.726-4.764h5.89c.086 0 .16-.03.22-.091a.303.303 0 00.091-.221v-2.552c0-.087-.03-.16-.09-.221a.284.284 0 00-.221-.104h-5.89a.324.324 0 00-.234.104.301.301 0 00-.09.221v2.552c0 .086.03.16.09.221.07.061.147.091.234.091zM34.13 113v-9.372h8.563v1.406h-7.148v2.577h5.747v1.406h-5.747v2.577h7.148V113H34.13zm18.314 0l-2.92-3.501h1.83l2.724 3.241v.26h-1.634zm-7.654 0v-9.359h7.64c.312 0 .597.078.857.234a1.7 1.7 0 01.61.625c.155.252.233.53.233.833v2.63c0 .312-.078.598-.233.859a1.72 1.72 0 01-.61.611 1.7 1.7 0 01-.856.222l-6.24.013V113H44.79zm1.725-4.764h5.89c.086 0 .16-.03.22-.091a.303.303 0 00.091-.221v-2.552c0-.087-.03-.16-.09-.221a.283.283 0 00-.221-.104h-5.89a.324.324 0 00-.234.104.301.301 0 00-.09.221v2.552c0 .086.03.16.09.221.07.061.148.091.234.091zM56.273 113v-7.68a1.657 1.657 0 01.83-1.458 1.63 1.63 0 01.857-.234h5.954c.311 0 .597.078.856.234.26.148.463.352.61.612.156.252.234.534.234.846V113H64.2v-3.28h-6.526V113h-1.4zm1.401-4.686H64.2v-2.955a.3.3 0 00-.091-.221.284.284 0 00-.22-.104h-5.89a.324.324 0 00-.234.104.301.301 0 00-.09.221v2.955zM67.883 113v-9.372h7.265c.303 0 .584.078.843.234.26.148.463.352.61.612.156.252.233.534.233.846v1.914c0 .112-.013.225-.038.338a.943.943 0 01-.104.312c.173.243.302.473.389.69.095.209.143.421.143.638v2.096c0 .312-.078.599-.234.859-.147.252-.35.456-.61.612-.26.147-.544.221-.856.221h-7.64zm1.726-1.406h5.89c.086 0 .16-.03.22-.091a.345.345 0 00.09-.234v-2.018c0-.087-.03-.16-.09-.221a.283.283 0 00-.22-.104h-5.89a.324.324 0 00-.234.104.301.301 0 00-.09.221v2.018c0 .087.03.165.09.234.07.061.147.091.234.091zm0-4.074h5.5c.087 0 .16-.03.22-.091a.35.35 0 00.091-.234v-1.836c0-.087-.03-.16-.09-.221a.284.284 0 00-.221-.104h-5.5a.324.324 0 00-.234.104.301.301 0 00-.09.221v1.836c0 .086.03.164.09.234.07.061.147.091.234.091zM87.044 113l-2.918-3.501h1.829l2.724 3.241v.26h-1.635zm-7.653 0v-9.359h7.64c.312 0 .597.078.857.234a1.7 1.7 0 01.61.625c.155.252.233.53.233.833v2.63c0 .312-.078.598-.233.859a1.72 1.72 0 01-.61.611 1.7 1.7 0 01-.857.222l-6.24.013V113h-1.4zm1.725-4.764h5.89c.086 0 .16-.03.22-.091a.303.303 0 00.09-.221v-2.552c0-.087-.03-.16-.09-.221a.283.283 0 00-.22-.104h-5.89a.324.324 0 00-.234.104.301.301 0 00-.09.221v2.552c0 .086.03.16.09.221.07.061.147.091.234.091zM90.874 113v-7.68a1.657 1.657 0 01.83-1.458 1.63 1.63 0 01.857-.234h5.954c.311 0 .597.078.856.234.26.148.463.352.61.612.156.252.234.534.234.846V113H98.8v-3.28h-6.525V113h-1.4zm1.401-4.686H98.8v-2.955c0-.087-.03-.16-.09-.221a.283.283 0 00-.22-.104H92.6a.324.324 0 00-.234.104.301.301 0 00-.09.221v2.955zM104.08 113c-.303 0-.584-.074-.844-.221a1.822 1.822 0 01-.622-.612 1.717 1.717 0 01-.221-.859v-.547h1.401v.508c0 .087.031.165.091.234a.343.343 0 00.234.091h5.889a.3.3 0 00.221-.091.348.348 0 00.091-.234v-1.927a.32.32 0 00-.091-.234.3.3 0 00-.221-.091h-5.928c-.303 0-.584-.074-.844-.221a1.83 1.83 0 01-.622-.612 1.717 1.717 0 01-.221-.859v-2.005a1.648 1.648 0 01.843-1.458 1.61 1.61 0 01.844-.234h5.967c.303 0 .584.078.843.234.26.148.463.352.61.612.156.252.234.534.234.846v.547h-1.414v-.508a.303.303 0 00-.091-.221.284.284 0 00-.221-.104h-5.889a.323.323 0 00-.234.104.303.303 0 00-.091.221v1.927a.32.32 0 00.091.234.343.343 0 00.234.091h5.928c.303 0 .584.078.843.234.26.148.463.352.61.612.156.252.234.534.234.846v2.005c0 .312-.078.599-.234.859-.147.252-.35.456-.61.612a1.68 1.68 0 01-.843.221h-5.967zm9.771 0v-9.372h1.401V113h-1.401zm8.703 0l-5.409-9.372h1.634l4.476 7.784 4.449-7.784h1.635L123.942 113h-1.388zm8.652 0v-9.372h8.562v1.406h-7.148v2.577h5.747v1.406h-5.747v2.577h7.148V113h-8.562zm16.861 0c-.312 0-.597-.074-.856-.221a1.859 1.859 0 01-.61-.612 1.717 1.717 0 01-.221-.859v-5.988c0-.312.074-.594.221-.846a1.72 1.72 0 01.61-.612c.259-.156.544-.234.856-.234h5.954c.312 0 .597.078.857.234.259.148.462.352.609.612.156.252.234.534.234.846v.56h-1.414v-.521a.303.303 0 00-.091-.221.284.284 0 00-.221-.104h-5.889a.323.323 0 00-.234.104.303.303 0 00-.091.221v5.91c0 .087.031.165.091.234a.343.343 0 00.234.091h5.889a.3.3 0 00.221-.091.348.348 0 00.091-.234v-1.992h-2.206v-1.419h3.62v3.45c0 .312-.078.599-.234.859-.147.252-.35.456-.609.612a1.71 1.71 0 01-.857.221h-5.954zm17.488 0l-2.919-3.501h1.83l2.724 3.241v.26h-1.635zm-7.654 0v-9.359h7.641c.312 0 .597.078.856.234.26.157.463.365.61.625.156.252.234.53.234.833v2.63a1.717 1.717 0 01-.844 1.47 1.694 1.694 0 01-.856.222l-6.24.013V113h-1.401zm1.726-4.764h5.889a.3.3 0 00.221-.091.305.305 0 00.091-.221v-2.552a.303.303 0 00-.091-.221.284.284 0 00-.221-.104h-5.889a.323.323 0 00-.234.104.303.303 0 00-.091.221v2.552c0 .086.031.16.091.221a.343.343 0 00.234.091zM169.32 113v-9.372h1.401V113h-1.401zm3.566 0v-9.372h1.673l6.253 7.472v-7.472h1.414V113h-1.673l-6.266-7.485V113h-1.401zm11.572 0v-9.372h7.641c.311 0 .597.078.856.234.26.148.463.352.61.612.156.252.234.534.234.846v5.988c0 .312-.078.599-.234.859-.147.252-.35.456-.61.612a1.706 1.706 0 01-.856.221h-7.641zm1.712-1.406h5.903a.3.3 0 00.221-.091.347.347 0 00.09-.234v-5.91c0-.087-.03-.16-.09-.221a.284.284 0 00-.221-.104h-5.903a.282.282 0 00-.22.104.3.3 0 00-.091.221v5.91c0 .087.03.165.091.234.06.061.134.091.22.091zm9.795 1.406v-9.372h1.401V113h-1.401zm3.566 0v-9.372h1.673l6.253 7.472v-7.472h1.414V113h-1.673l-6.266-7.485V113h-1.401zm13.232 0c-.311 0-.596-.074-.856-.221a1.868 1.868 0 01-.61-.612 1.716 1.716 0 01-.22-.859v-5.988c0-.312.073-.594.22-.846.156-.26.359-.464.61-.612.26-.156.545-.234.856-.234h5.955c.311 0 .597.078.856.234.26.148.463.352.61.612.156.252.233.534.233.846v.56h-1.414v-.521c0-.087-.03-.16-.09-.221a.284.284 0 00-.221-.104h-5.89a.323.323 0 00-.233.104.3.3 0 00-.091.221v5.91c0 .087.03.165.091.234a.343.343 0 00.233.091h5.89a.3.3 0 00.221-.091.347.347 0 00.09-.234v-1.992h-2.205v-1.419h3.619v3.45a1.711 1.711 0 01-.843 1.471 1.706 1.706 0 01-.856.221h-5.955zm15.985 0c-.303 0-.584-.074-.844-.221a1.822 1.822 0 01-.622-.612 1.717 1.717 0 01-.221-.859v-.547h1.401v.508c0 .087.03.165.091.234a.343.343 0 00.234.091h5.889a.3.3 0 00.221-.091.348.348 0 00.091-.234v-1.927a.32.32 0 00-.091-.234.3.3 0 00-.221-.091h-5.928c-.303 0-.584-.074-.844-.221a1.83 1.83 0 01-.622-.612 1.717 1.717 0 01-.221-.859v-2.005a1.648 1.648 0 01.843-1.458 1.61 1.61 0 01.844-.234h5.967c.303 0 .584.078.843.234.26.148.463.352.61.612.156.252.234.534.234.846v.547h-1.414v-.508a.303.303 0 00-.091-.221.284.284 0 00-.221-.104h-5.889a.323.323 0 00-.234.104.3.3 0 00-.091.221v1.927c0 .095.03.173.091.234a.343.343 0 00.234.091h5.928c.303 0 .584.078.843.234.26.148.463.352.61.612.156.252.234.534.234.846v2.005c0 .312-.078.599-.234.859-.147.252-.35.456-.61.612a1.68 1.68 0 01-.843.221h-5.967zm11.471 0a1.71 1.71 0 01-.857-.221 1.856 1.856 0 01-.609-.612 1.717 1.717 0 01-.221-.859v-5.988c0-.312.074-.594.221-.846.155-.26.358-.464.609-.612.26-.156.545-.234.857-.234h5.967c.303 0 .584.078.843.234.26.148.463.352.61.612.156.252.234.534.234.846v5.988c0 .312-.078.599-.234.859-.147.252-.35.456-.61.612a1.68 1.68 0 01-.843.221h-5.967zm.038-1.406h5.89a.3.3 0 00.221-.091.347.347 0 00.09-.234v-5.91c0-.087-.03-.16-.09-.221a.284.284 0 00-.221-.104h-5.89a.323.323 0 00-.233.104.3.3 0 00-.091.221v5.91c0 .087.03.165.091.234a.343.343 0 00.233.091zm9.81 1.406v-9.385h1.401v7.979h7.939V113h-9.34zm12.509 0c-.311 0-.596-.074-.856-.221a1.868 1.868 0 01-.61-.612 1.716 1.716 0 01-.22-.859v-7.68h1.401v7.641c0 .087.03.165.091.234a.343.343 0 00.233.091h5.89c.086 0 .16-.03.22-.091a.343.343 0 00.091-.234v-7.641h1.414v7.68a1.711 1.711 0 01-.843 1.471 1.68 1.68 0 01-.843.221h-5.968zm13.338 0v-7.966h-3.97v-1.406h9.341v1.406h-3.97V113h-1.401zm7.055 0v-9.372h1.401V113h-1.401zm5.226 0c-.311 0-.597-.074-.856-.221a1.868 1.868 0 01-.61-.612 1.716 1.716 0 01-.22-.859v-5.988c0-.312.073-.594.22-.846.156-.26.359-.464.61-.612a1.63 1.63 0 01.856-.234h5.968c.302 0 .583.078.843.234.259.148.463.352.61.612.155.252.233.534.233.846v5.988c0 .312-.078.599-.233.859a1.72 1.72 0 01-.61.612c-.26.147-.541.221-.843.221h-5.968zm.039-1.406h5.89c.086 0 .16-.03.22-.091a.343.343 0 00.091-.234v-5.91a.3.3 0 00-.091-.221.282.282 0 00-.22-.104h-5.89a.325.325 0 00-.234.104.303.303 0 00-.09.221v5.91c0 .087.03.165.09.234.07.061.147.091.234.091zM298.03 113v-9.372h1.674l6.253 7.472v-7.472h1.414V113h-1.674l-6.266-7.485V113h-1.401zm13.181 0a1.68 1.68 0 01-.843-.221 1.825 1.825 0 01-.623-.612 1.716 1.716 0 01-.22-.859v-.547h1.401v.508c0 .087.03.165.09.234.07.061.147.091.234.091h5.89c.086 0 .16-.03.22-.091a.343.343 0 00.091-.234v-1.927a.316.316 0 00-.091-.234.297.297 0 00-.22-.091h-5.929a1.68 1.68 0 01-.843-.221 1.834 1.834 0 01-.623-.612 1.716 1.716 0 01-.22-.859v-2.005c0-.312.073-.594.22-.846.156-.26.363-.464.623-.612.259-.156.54-.234.843-.234h5.968c.302 0 .583.078.843.234.259.148.463.352.61.612.155.252.233.534.233.846v.547h-1.414v-.508a.3.3 0 00-.091-.221.282.282 0 00-.22-.104h-5.89a.325.325 0 00-.234.104.303.303 0 00-.09.221v1.927c0 .095.03.173.09.234.07.061.147.091.234.091h5.929c.302 0 .583.078.843.234.259.148.463.352.61.612.155.252.233.534.233.846v2.005c0 .312-.078.599-.233.859a1.72 1.72 0 01-.61.612c-.26.147-.541.221-.843.221h-5.968zM.327 11.47V.016h1.3V5.09h3.679L9.556.016h1.648v.016L6.432 5.743l4.788 5.712v.015H9.555l-4.25-5.075H1.628v5.075h-1.3zm18.106 0V7.16L13.184.015h1.475l4.424 5.6 4.376-5.6h1.506l-5.248 7.143v4.311h-1.284zm10.396 0a1.91 1.91 0 01-.968-.254 1.919 1.919 0 01-.681-.684 1.927 1.927 0 01-.254-.97V1.924c0-.35.084-.668.254-.955.169-.297.396-.53.681-.7a1.91 1.91 0 01.968-.254h7.61c.35 0 .666.085.952.254.296.17.528.403.697.7.17.287.254.605.254.955V9.56c0 .35-.084.674-.254.97a1.878 1.878 0 01-.697.685c-.286.17-.603.255-.952.255h-7.61zm0-1.288h7.61c.17 0 .312-.059.428-.175a.612.612 0 00.19-.446V1.925a.561.561 0 00-.19-.43.558.558 0 00-.428-.19h-7.61a.608.608 0 00-.444.19.585.585 0 00-.175.43v7.636c0 .17.058.319.175.446a.636.636 0 00.444.175zM45.21 11.47V1.306h-5.074V.015h11.416v1.29h-5.058V11.47H45.21zm10.017 0c-.349 0-.671-.084-.967-.254a1.919 1.919 0 01-.682-.684 1.928 1.928 0 01-.254-.97V1.924c0-.35.085-.668.254-.955.17-.297.396-.53.682-.7.296-.17.618-.254.967-.254h7.61c.35 0 .667.085.952.254.296.17.529.403.698.7.169.287.254.605.254.955V9.56c0 .35-.085.674-.254.97-.17.287-.402.515-.698.685-.285.17-.602.255-.951.255h-7.61zm0-1.288h7.61c.17 0 .313-.059.429-.175a.612.612 0 00.19-.446V1.925a.561.561 0 00-.19-.43.558.558 0 00-.428-.19h-7.61a.608.608 0 00-.445.19.585.585 0 00-.174.43v7.636c0 .17.058.319.174.446a.636.636 0 00.444.175zm16.848 1.288V.016h9.514c.349 0 .666.085.951.254.296.17.529.403.698.7.169.287.253.605.253.955v7.636c0 .35-.084.674-.253.97-.17.287-.402.515-.698.685-.285.17-.602.255-.951.255h-9.514zm1.903-1.288h7.61c.17 0 .313-.059.429-.175a.611.611 0 00.19-.446V1.925a.56.56 0 00-.19-.43.557.557 0 00-.428-.19h-7.611a.607.607 0 00-.444.19.585.585 0 00-.174.43v7.636c0 .17.058.319.174.446a.635.635 0 00.444.175zm12.066 1.288V.016h1.3V11.47h-1.3zm3.883 0V1.925c0-.35.084-.668.253-.955.17-.297.397-.53.682-.7.296-.17.618-.254.967-.254h7.611c.349 0 .666.085.951.254.296.17.529.403.698.7.169.287.254.605.254.955v9.545h-1.285V7.286h-8.847v4.184h-1.284zm1.284-5.472h8.847V1.925a.56.56 0 00-.19-.43.558.558 0 00-.428-.19h-7.61a.607.607 0 00-.445.19.585.585 0 00-.174.43v4.073zm12.557 5.472V.016h1.76l4.741 5.664 4.74-5.664h1.76V11.47h-1.284V1.48l-5.216 6.22-5.217-6.22v9.99h-1.284zm17.199 0a1.91 1.91 0 01-.967-.254 1.914 1.914 0 01-.682-.684 1.93 1.93 0 01-.254-.97V1.924c0-.35.085-.668.254-.955.169-.297.396-.53.682-.7a1.91 1.91 0 01.967-.254h7.611c.349 0 .666.085.951.254.296.17.529.403.698.7.169.287.253.605.253.955V9.56c0 .35-.084.674-.253.97a1.882 1.882 0 01-.698.685c-.285.17-.602.255-.951.255h-7.611zm0-1.288h7.611a.58.58 0 00.428-.175.61.61 0 00.19-.446V1.925a.56.56 0 00-.19-.43.557.557 0 00-.428-.19h-7.611a.608.608 0 00-.444.19.586.586 0 00-.174.43v7.636c0 .17.058.319.174.446a.636.636 0 00.444.175zm11.878 1.288V.016h1.76l8.372 9.99V.017h1.284V11.47h-1.76l-8.372-9.99v9.99h-1.284zm13.843 0V.016h9.513c.349 0 .666.085.951.254.296.17.529.403.698.7.169.287.254.605.254.955v7.636c0 .35-.085.674-.254.97a1.882 1.882 0 01-.698.685c-.285.17-.602.255-.951.255h-9.513zm1.902-1.288h7.611a.58.58 0 00.428-.175.61.61 0 00.19-.446V1.925a.56.56 0 00-.19-.43.557.557 0 00-.428-.19h-7.611a.608.608 0 00-.444.19.586.586 0 00-.174.43v7.636c0 .17.058.319.174.446a.636.636 0 00.444.175zm21.349 1.288V1.306h-5.074V.015h11.417v1.29h-5.058V11.47h-1.285zm10.018 0a1.91 1.91 0 01-.967-.254 1.914 1.914 0 01-.682-.684 1.93 1.93 0 01-.254-.97V1.924c0-.35.085-.668.254-.955.169-.297.396-.53.682-.7a1.91 1.91 0 01.967-.254h7.611c.348 0 .665.085.951.254.296.17.528.403.698.7.169.287.253.605.253.955V9.56c0 .35-.084.674-.253.97-.17.287-.402.515-.698.685-.286.17-.603.255-.951.255h-7.611zm0-1.288h7.611a.582.582 0 00.428-.175.615.615 0 00.19-.446V1.925a.564.564 0 00-.19-.43.559.559 0 00-.428-.19h-7.611a.608.608 0 00-.444.19.587.587 0 00-.175.43v7.636c0 .17.059.319.175.446a.636.636 0 00.444.175zm13.749 1.288c-.349 0-.672-.084-.967-.254a1.914 1.914 0 01-.682-.684 1.93 1.93 0 01-.254-.97V1.924c0-.35.085-.668.254-.955.169-.297.396-.53.682-.7.295-.17.618-.254.967-.254h7.61c.349 0 .666.085.952.254.296.17.528.403.697.7.17.287.254.605.254.955V9.56c0 .35-.084.674-.254.97a1.879 1.879 0 01-.697.685 1.83 1.83 0 01-.952.255h-7.61zm0-1.288h7.61c.17 0 .312-.059.429-.175a.615.615 0 00.19-.446V1.925a.564.564 0 00-.19-.43.56.56 0 00-.429-.19h-7.61a.608.608 0 00-.444.19.583.583 0 00-.175.43v7.636c0 .17.058.319.175.446a.636.636 0 00.444.175zM205.6 11.47V0h1.284v10.182h10.132v1.288H205.6zm14.782 0a1.91 1.91 0 01-.967-.254 1.914 1.914 0 01-.682-.684 1.93 1.93 0 01-.254-.97v-.446h1.284v.445c0 .17.059.319.175.446a.636.636 0 00.444.175h7.611a.582.582 0 00.428-.175.61.61 0 00.19-.446V7a.56.56 0 00-.19-.43.582.582 0 00-.428-.175h-7.611a1.91 1.91 0 01-.967-.254 2.047 2.047 0 01-.682-.7 1.843 1.843 0 01-.254-.955V1.925c0-.35.085-.668.254-.955.169-.297.396-.53.682-.7a1.91 1.91 0 01.967-.254h7.611c.348 0 .666.085.951.254.296.17.529.403.698.7.169.287.253.605.253.955v.445h-1.284v-.445a.56.56 0 00-.19-.43.559.559 0 00-.428-.19h-7.611a.608.608 0 00-.444.19.587.587 0 00-.175.43v2.561c0 .17.059.313.175.43a.636.636 0 00.444.175h7.611c.348 0 .666.09.951.27A1.846 1.846 0 01229.895 7v2.561c0 .35-.084.674-.253.97a1.882 1.882 0 01-.698.685c-.285.17-.603.255-.951.255h-7.611zm18.642 0a1.91 1.91 0 01-.967-.254 1.914 1.914 0 01-.682-.684 1.93 1.93 0 01-.254-.97V.015h1.285V9.56c0 .17.058.319.174.446a.636.636 0 00.444.175h7.611a.58.58 0 00.428-.175.61.61 0 00.19-.446V.016h1.284V9.56c0 .35-.084.674-.253.97a1.882 1.882 0 01-.698.685c-.285.17-.602.255-.951.255h-7.611zm11.894 0V.016h1.3V5.09h3.678l4.25-5.075h1.649v.016l-4.773 5.711 4.789 5.712v.015h-1.665l-4.25-5.075h-3.678v5.075h-1.3zm22.878 0l-3.726-4.454h1.68l3.742 4.439v.015h-1.696zm-9.641 0V.032h9.514c.349 0 .666.09.951.27.296.17.529.398.698.684.169.287.254.605.254.955v3.357c0 .35-.085.668-.254.954a2 2 0 01-.698.7c-.285.17-.602.255-.951.255h-8.229v4.263h-1.285zm1.903-5.568h7.611a.58.58 0 00.428-.175.56.56 0 00.19-.43V1.942a.56.56 0 00-.19-.43.557.557 0 00-.428-.19h-7.611a.608.608 0 00-.444.19.586.586 0 00-.174.43v3.357c0 .17.058.313.174.43a.636.636 0 00.444.174zm11.832 5.568V1.925c0-.35.084-.668.253-.955.169-.297.397-.53.682-.7a1.91 1.91 0 01.967-.254h7.611c.349 0 .666.085.951.254.296.17.529.403.698.7.169.287.254.605.254.955v9.545h-1.285V7.286h-8.847v4.184h-1.284zm1.284-5.472h8.847V1.925a.56.56 0 00-.19-.43.557.557 0 00-.428-.19h-7.611a.608.608 0 00-.444.19.586.586 0 00-.174.43v4.073zm12.715 5.472V.016h1.3V11.47h-1.3zm3.851 0V.016h1.76l8.372 9.99V.017h1.284V11.47h-1.76l-8.372-9.99v9.99h-1.284zm13.843 0V.016H320v1.289h-9.133V5.09h7.341v1.304h-7.341v3.787H320v1.288h-10.417z" fill="#fff"/><path d="M0 88.702v6.06h28.757v-6.06H0zm42.323 0l3.183 6.06h32.288l-3.697-6.06H42.323zM63.51 71.347L53.276 54.57 78.5 20.148H45.809L28.757 46.572V20.148H0v51.199h28.757v-8.475l4.451 8.475H63.51zm-34.753 1.735H0v5.786h28.757v-5.785zm0 7.81H0v5.786h28.757v-5.786zm39.341-2.024l-3.53-5.785H34.12l3.038 5.785h30.94z" fill="#FF7100"/><path fill-rule="evenodd" clip-rule="evenodd" d="M69.333 80.892l3.53 5.786H41.26l-3.039-5.786h31.112z" fill="#FF7100"/><path d="M87.738 94.762v-6.06h62.987l-6.684 6.06H87.738zm101.689.015v-6.075h28.757v6.075h-28.757zm70.71-.015l-7.057-6.06h62.647l-7.057 6.06h-48.533zm59.733-9.618l-1.785 1.534h-67.363l-1.785-1.534v-4.252h70.933v4.252zm0-12.062v5.786h-28.756v-5.785h28.756zm0-52.934v51.199h-28.756V20.148h28.756zm-42.176 0v51.199h-28.757V31.299l12.828-11.15h15.929zm-59.51 19.959v31.24h-28.757v-31.24h-12.721l-9.838-9.972v-9.972h73.874v9.972l-9.838 9.972h-12.72zm-57.394-4.671v35.91h-28.756V35.639h-15.539v35.709H87.738v-51.2h56.303l16.749 15.288zM87.738 86.678v-5.786h71.601l-6.381 5.786h-65.22zm101.689 0v-5.786h28.757v5.786h-28.757zm59.51-7.81h28.757v-5.785h-28.757v5.785zm-30.753-5.786v5.786h-28.757v-5.785h28.757zm-57.394 0v5.786h-28.756v-5.785h28.756zm-44.295 0H87.738v5.786h28.757v-5.785z" fill="#FF7100"/></svg>